<?xml version="1.0" standalone="no"?>
<!DOCTYPE svg PUBLIC "-//W3C//DTD SVG 20010904//EN"
 "http://www.w3.org/TR/2001/REC-SVG-20010904/DTD/svg10.dtd">
<svg version="1.0" xmlns="http://www.w3.org/2000/svg"
 width="256.000000pt" height="171.000000pt" viewBox="0 0 256.000000 171.000000"
 preserveAspectRatio="xMidYMid meet">

<g transform="translate(0.000000,171.000000) scale(0.100000,-0.100000)"
fill="#000000" stroke="none">
<path d="M473 1698 c63 -164 354 -847 364 -858 13 -13 20 -9 60 35 82 91 123
151 123 179 0 16 -59 169 -131 342 l-132 314 -144 0 c-112 0 -144 -3 -140 -12z"/>
<path d="M10 445 l0 -145 90 0 c83 0 90 1 90 20 0 16 -7 20 -37 21 -21 1 -49
2 -63 2 l-25 2 -3 123 -3 122 -24 0 -25 0 0 -145z"/>
<path d="M230 445 l0 -145 30 0 30 0 0 145 0 145 -30 0 -30 0 0 -145z"/>
<path d="M350 445 l0 -145 30 0 30 0 0 103 0 102 62 -103 c55 -93 64 -103 87
-100 l26 3 3 143 3 142 -30 0 -30 0 -3 -97 -3 -97 -58 97 c-52 88 -61 97 -87
97 l-30 0 0 -145z"/>
<path d="M640 485 c0 -121 12 -155 60 -175 46 -19 117 -8 149 24 24 25 26 33
30 141 l3 115 -31 0 -31 0 0 -109 c0 -102 -2 -111 -22 -125 -30 -21 -61 -20
-81 2 -14 15 -17 40 -17 125 l0 107 -30 0 -30 0 0 -105z"/>
<path d="M920 585 c0 -3 18 -35 40 -71 l39 -65 -44 -72 -44 -72 25 -3 c32 -4
46 8 69 58 10 22 22 40 26 40 5 0 20 -22 34 -50 23 -46 28 -50 61 -50 35 0 36
1 22 23 -9 12 -30 46 -48 75 l-32 53 37 62 c21 34 40 65 42 70 2 4 -11 7 -29
7 -30 0 -36 -5 -56 -45 -12 -25 -25 -45 -30 -45 -4 0 -18 20 -30 45 -19 39
-26 45 -52 45 -16 0 -30 -2 -30 -5z"/>
</g>
</svg>
